<svg xmlns="http://www.w3.org/2000/svg" xmlns:xlink="http://www.w3.org/1999/xlink" width="2000" zoomAndPan="magnify" viewBox="0 0 1500 1499.999933" height="2000" preserveAspectRatio="xMidYMid meet" version="1.0"><defs><clipPath id="3127a175aa"><path d="M 642 396 L 1146.824219 396 L 1146.824219 982.953125 L 642 982.953125 Z M 642 396 " clip-rule="nonzero"/></clipPath><clipPath id="d258f653f7"><path d="M 655.199219 888.300781 C 706.351562 925.425781 711.75 928.425781 718.5 932.398438 C 725.476562 936.523438 731.550781 940.199219 739.875 944.550781 C 751.050781 950.398438 770.25 960.675781 779.925781 963.75 C 785.101562 965.324219 788.101562 965.398438 792.300781 965.773438 C 796.425781 966.148438 801.074219 967.351562 804.898438 966 C 809.023438 964.5 812.851562 959.773438 815.925781 956.851562 C 818.324219 954.449219 819.898438 952.648438 822.074219 949.800781 C 825 945.824219 828.675781 940.726562 831.601562 935.023438 C 835.199219 928.125 838.800781 918.675781 841.351562 910.875 C 843.675781 903.898438 845.625 898.125 846.675781 890.625 C 848.023438 881.699219 848.25 871.5 847.800781 860.773438 C 847.273438 848.101562 845.023438 833.476562 842.699219 819.523438 C 840.300781 804.898438 837.449219 791.925781 833.550781 775.050781 C 828.226562 752.625 816.976562 715.351562 812.925781 696.824219 C 810.75 686.773438 809.699219 679.800781 808.800781 673.425781 C 808.199219 669.074219 807.675781 666.074219 807.75 662.25 C 807.898438 658.273438 807.449219 652.800781 809.851562 649.875 C 812.625 646.574219 820.050781 644.023438 824.925781 644.476562 C 829.949219 644.925781 834.898438 649.199219 839.773438 653.023438 C 845.699219 657.75 852 665.476562 857.324219 671.476562 C 862.199219 676.949219 865.875 681.675781 870.523438 687.601562 C 875.925781 694.574219 881.023438 701.324219 887.625 711 C 897.898438 726 916.199219 756.601562 925.199219 769.5 C 929.851562 776.101562 931.800781 778.574219 936.300781 784.050781 C 942.375 791.398438 950.550781 802.425781 958.648438 809.324219 C 966.148438 815.625 976.199219 822.148438 982.875 824.324219 C 986.925781 825.601562 990.375 826.574219 993.523438 825.074219 C 997.574219 823.125 1001.773438 816.074219 1003.574219 810.824219 C 1005.375 805.5 1004.925781 801.375 1004.101562 793.125 C 1001.925781 773.175781 985.425781 717.898438 979.125 691.726562 C 975.226562 675.375 972.148438 663.074219 969.75 651.675781 C 968.023438 643.273438 966.898438 638.25 965.773438 629.699219 C 964.199219 618 962.851562 604.050781 962.023438 587.699219 C 960.898438 564.976562 956.625 521.699219 961.125 505.875 C 963.226562 498.601562 966.675781 493.800781 970.574219 491.324219 C 973.5 489.449219 977.101562 489.300781 980.625 489.898438 C 984.898438 490.574219 989.699219 493.726562 993.976562 496.800781 C 998.925781 500.25 1003.800781 505.726562 1008.074219 510.074219 C 1011.976562 513.898438 1014.375 516.523438 1018.648438 521.476562 C 1026.074219 530.023438 1037.625 544.574219 1047.675781 557.398438 C 1058.925781 571.648438 1074.976562 593.398438 1083.074219 603.226562 C 1087.050781 608.023438 1088.25 609.449219 1092.226562 613.726562 C 1099.199219 621 1114.199219 637.800781 1121.398438 642.601562 C 1124.773438 644.925781 1128.601562 647.175781 1129.949219 646.199219 C 1131.523438 645 1128.75 638.023438 1128.601562 633.824219 C 1128.523438 629.476562 1129.5 625.5 1129.351562 620.398438 C 1129.199219 613.726562 1128.148438 606.300781 1126.726562 597.148438 C 1124.550781 583.800781 1120.050781 563.773438 1116.601562 548.023438 C 1113.300781 533.175781 1109.699219 517.648438 1106.476562 505.050781 C 1103.925781 494.925781 1100.625 486.148438 1098.976562 477.898438 C 1097.550781 471 1097.023438 465.675781 1096.425781 458.773438 C 1095.75 450.523438 1096.351562 438.523438 1095.375 431.699219 C 1094.773438 427.425781 1094.398438 424.574219 1092.824219 421.425781 C 1091.25 418.199219 1087.726562 415.425781 1086 412.800781 C 1084.648438 410.773438 1083.375 409.199219 1082.925781 407.324219 C 1082.550781 405.449219 1082.699219 403.199219 1083.375 401.550781 C 1084.125 399.898438 1085.925781 398.101562 1087.199219 397.199219 C 1088.101562 396.601562 1088.851562 396.300781 1089.976562 396.226562 C 1091.476562 396 1094.25 396.375 1095.675781 396.976562 C 1096.726562 397.351562 1097.324219 397.800781 1098.074219 398.625 C 1099.125 399.824219 1100.398438 402 1100.699219 403.800781 C 1100.925781 405.601562 1100.25 408.074219 1099.574219 409.5 C 1099.125 410.476562 1098.675781 411.074219 1097.773438 411.75 C 1096.574219 412.726562 1094.324219 413.925781 1092.523438 414.074219 C 1090.648438 414.226562 1088.25 413.476562 1086.898438 412.726562 C 1085.925781 412.199219 1085.324219 411.675781 1084.726562 410.773438 C 1083.824219 409.5 1082.699219 407.175781 1082.699219 405.375 C 1082.625 403.574219 1083.300781 401.324219 1084.351562 399.824219 C 1085.398438 398.324219 1087.273438 396.976562 1089 396.449219 C 1090.726562 395.925781 1093.273438 396.148438 1094.773438 396.601562 C 1095.824219 396.898438 1096.351562 397.125 1097.324219 398.023438 C 1099.648438 400.050781 1104.148438 406.574219 1106.550781 410.625 C 1108.5 413.925781 1110 416.851562 1110.898438 420.300781 C 1111.875 423.898438 1111.875 427.050781 1112.101562 431.625 C 1112.476562 438.523438 1111.648438 450.148438 1111.875 457.800781 C 1112.023438 463.800781 1111.800781 466.425781 1113 473.925781 C 1115.851562 492.074219 1130.925781 543.300781 1136.101562 565.5 C 1139.023438 578.023438 1140.75 585.523438 1142.476562 595.125 C 1144.050781 604.050781 1145.773438 613.648438 1146.148438 621.148438 C 1146.449219 626.625 1146.148438 630.601562 1145.699219 635.625 C 1145.175781 641.175781 1145.925781 648.523438 1143.148438 653.101562 C 1140.449219 657.675781 1133.625 662.25 1129.351562 663.300781 C 1126.125 663.976562 1123.125 662.851562 1120.125 661.574219 C 1116.675781 660.148438 1113.824219 657.675781 1109.925781 654.300781 C 1103.699219 648.824219 1094.25 637.949219 1087.5 630.375 C 1081.726562 623.925781 1077.976562 619.5 1071.675781 611.925781 C 1062.148438 600.226562 1047.523438 580.726562 1036.125 566.851562 C 1026 554.550781 1014.148438 540.601562 1006.875 532.648438 C 1002.75 528.148438 1000.875 526.125 996.976562 522.375 C 991.875 517.5 982.574219 504.148438 978.449219 506.023438 C 970.273438 509.699219 976.949219 579.976562 977.699219 601.648438 C 978.148438 612.824219 978.675781 618.976562 979.800781 627.074219 C 980.851562 634.5 981.675781 638.101562 983.925781 648.300781 C 989.925781 675.074219 1016.851562 766.425781 1020.300781 793.125 C 1021.648438 803.175781 1021.273438 807.375 1020.523438 814.199219 C 1019.851562 820.648438 1018.648438 828.300781 1016.101562 832.949219 C 1014.300781 836.398438 1011.675781 838.949219 1008.824219 840.523438 C 1006.125 842.101562 1002.824219 842.398438 999.601562 842.625 C 996.074219 843 992.25 842.550781 988.574219 842.175781 C 984.898438 841.726562 981.75 841.726562 977.699219 840.148438 C 971.398438 837.601562 961.199219 829.875 955.574219 825.824219 C 951.976562 823.125 950.476562 822.375 946.949219 818.699219 C 939.074219 810.824219 924.523438 792.148438 913.425781 776.851562 C 900.824219 759.523438 886.125 734.324219 875.925781 719.699219 C 869.324219 710.398438 864.300781 703.875 858.976562 697.273438 C 854.476562 691.648438 850.726562 687.300781 846.148438 682.351562 C 841.351562 677.175781 835.273438 670.5 830.851562 666.824219 C 828 664.425781 824.699219 660.75 823.199219 661.574219 C 821.175781 662.699219 823.5 675.523438 824.101562 681.300781 C 824.550781 685.800781 824.925781 687.601562 826.125 693.300781 C 829.351562 708.148438 841.800781 749.398438 847.199219 772.199219 C 851.324219 789.375 854.25 802.726562 856.800781 817.726562 C 859.273438 832.351562 861.675781 847.800781 862.273438 861.300781 C 862.800781 873 862.425781 884.398438 861.074219 894.226562 C 859.949219 902.398438 858 908.773438 855.601562 916.425781 C 852.898438 925.125 849.074219 935.550781 845.25 943.425781 C 842.023438 950.023438 838.125 956.398438 834.675781 960.976562 C 832.199219 964.425781 829.949219 966.601562 827.175781 969.300781 C 824.324219 972.148438 821.324219 975.449219 817.726562 977.550781 C 813.898438 979.800781 809.175781 981.523438 804.675781 982.199219 C 800.101562 982.800781 795.300781 981.976562 790.351562 981.226562 C 784.949219 980.324219 780.300781 979.425781 773.625 976.949219 C 762.898438 972.976562 744.375 962.925781 732.898438 956.925781 C 724.425781 952.5 718.273438 948.898438 711.074219 944.773438 C 703.949219 940.726562 698.175781 937.574219 689.925781 932.25 C 677.773438 924.449219 651.375 906.375 645.824219 901.273438 C 644.398438 899.925781 643.949219 899.476562 643.351562 898.351562 C 642.824219 897.226562 642.449219 895.949219 642.523438 894.601562 C 642.675781 892.949219 643.425781 890.625 644.625 889.351562 C 645.824219 888.074219 648 887.023438 649.726562 886.800781 C 651.523438 886.648438 655.199219 888.300781 655.199219 888.300781 " clip-rule="nonzero"/></clipPath><clipPath id="0b5d449277"><path d="M 0.238281 0 L 504.480469 0 L 504.480469 586.800781 L 0.238281 586.800781 Z M 0.238281 0 " clip-rule="nonzero"/></clipPath><clipPath id="c6ef843097"><path d="M 13.199219 492.300781 C 64.351562 529.425781 69.75 532.425781 76.5 536.398438 C 83.476562 540.523438 89.550781 544.199219 97.875 548.550781 C 109.050781 554.398438 128.25 564.675781 137.925781 567.75 C 143.101562 569.324219 146.101562 569.398438 150.300781 569.773438 C 154.425781 570.148438 159.074219 571.351562 162.898438 570 C 167.023438 568.5 170.851562 563.773438 173.925781 560.851562 C 176.324219 558.449219 177.898438 556.648438 180.074219 553.800781 C 183 549.824219 186.675781 544.726562 189.601562 539.023438 C 193.199219 532.125 196.800781 522.675781 199.351562 514.875 C 201.675781 507.898438 203.625 502.125 204.675781 494.625 C 206.023438 485.699219 206.25 475.5 205.800781 464.773438 C 205.273438 452.101562 203.023438 437.476562 200.699219 423.523438 C 198.300781 408.898438 195.449219 395.925781 191.550781 379.050781 C 186.226562 356.625 174.976562 319.351562 170.925781 300.824219 C 168.75 290.773438 167.699219 283.800781 166.800781 277.425781 C 166.199219 273.074219 165.675781 270.074219 165.75 266.25 C 165.898438 262.273438 165.449219 256.800781 167.851562 253.875 C 170.625 250.574219 178.050781 248.023438 182.925781 248.476562 C 187.949219 248.925781 192.898438 253.199219 197.773438 257.023438 C 203.699219 261.75 210 269.476562 215.324219 275.476562 C 220.199219 280.949219 223.875 285.675781 228.523438 291.601562 C 233.925781 298.574219 239.023438 305.324219 245.625 315 C 255.898438 330 274.199219 360.601562 283.199219 373.5 C 287.851562 380.101562 289.800781 382.574219 294.300781 388.050781 C 300.375 395.398438 308.550781 406.425781 316.648438 413.324219 C 324.148438 419.625 334.199219 426.148438 340.875 428.324219 C 344.925781 429.601562 348.375 430.574219 351.523438 429.074219 C 355.574219 427.125 359.773438 420.074219 361.574219 414.824219 C 363.375 409.5 362.925781 405.375 362.101562 397.125 C 359.925781 377.175781 343.425781 321.898438 337.125 295.726562 C 333.226562 279.375 330.148438 267.074219 327.75 255.675781 C 326.023438 247.273438 324.898438 242.25 323.773438 233.699219 C 322.199219 222 320.851562 208.050781 320.023438 191.699219 C 318.898438 168.976562 314.625 125.699219 319.125 109.875 C 321.226562 102.601562 324.675781 97.800781 328.574219 95.324219 C 331.5 93.449219 335.101562 93.300781 338.625 93.898438 C 342.898438 94.574219 347.699219 97.726562 351.976562 100.800781 C 356.925781 104.25 361.800781 109.726562 366.074219 114.074219 C 369.976562 117.898438 372.375 120.523438 376.648438 125.476562 C 384.074219 134.023438 395.625 148.574219 405.675781 161.398438 C 416.925781 175.648438 432.976562 197.398438 441.074219 207.226562 C 445.050781 212.023438 446.25 213.449219 450.226562 217.726562 C 457.199219 225 472.199219 241.800781 479.398438 246.601562 C 482.773438 248.925781 486.601562 251.175781 487.949219 250.199219 C 489.523438 249 486.75 242.023438 486.601562 237.824219 C 486.523438 233.476562 487.5 229.5 487.351562 224.398438 C 487.199219 217.726562 486.148438 210.300781 484.726562 201.148438 C 482.550781 187.800781 478.050781 167.773438 474.601562 152.023438 C 471.300781 137.175781 467.699219 121.648438 464.476562 109.050781 C 461.925781 98.925781 458.625 90.148438 456.976562 81.898438 C 455.550781 75 455.023438 69.675781 454.425781 62.773438 C 453.75 54.523438 454.351562 42.523438 453.375 35.699219 C 452.773438 31.425781 452.398438 28.574219 450.824219 25.425781 C 449.25 22.199219 445.726562 19.425781 444 16.800781 C 442.648438 14.773438 441.375 13.199219 440.925781 11.324219 C 440.550781 9.449219 440.699219 7.199219 441.375 5.550781 C 442.125 3.898438 443.925781 2.101562 445.199219 1.199219 C 446.101562 0.601562 446.851562 0.300781 447.976562 0.226562 C 449.476562 0 452.25 0.375 453.675781 0.976562 C 454.726562 1.351562 455.324219 1.800781 456.074219 2.625 C 457.125 3.824219 458.398438 6 458.699219 7.800781 C 458.925781 9.601562 458.25 12.074219 457.574219 13.5 C 457.125 14.476562 456.675781 15.074219 455.773438 15.75 C 454.574219 16.726562 452.324219 17.925781 450.523438 18.074219 C 448.648438 18.226562 446.25 17.476562 444.898438 16.726562 C 443.925781 16.199219 443.324219 15.675781 442.726562 14.773438 C 441.824219 13.5 440.699219 11.175781 440.699219 9.375 C 440.625 7.574219 441.300781 5.324219 442.351562 3.824219 C 443.398438 2.324219 445.273438 0.976562 447 0.449219 C 448.726562 -0.0742188 451.273438 0.148438 452.773438 0.601562 C 453.824219 0.898438 454.351562 1.125 455.324219 2.023438 C 457.648438 4.050781 462.148438 10.574219 464.550781 14.625 C 466.5 17.925781 468 20.851562 468.898438 24.300781 C 469.875 27.898438 469.875 31.050781 470.101562 35.625 C 470.476562 42.523438 469.648438 54.148438 469.875 61.800781 C 470.023438 67.800781 469.800781 70.425781 471 77.925781 C 473.851562 96.074219 488.925781 147.300781 494.101562 169.5 C 497.023438 182.023438 498.75 189.523438 500.476562 199.125 C 502.050781 208.050781 503.773438 217.648438 504.148438 225.148438 C 504.449219 230.625 504.148438 234.601562 503.699219 239.625 C 503.175781 245.175781 503.925781 252.523438 501.148438 257.101562 C 498.449219 261.675781 491.625 266.25 487.351562 267.300781 C 484.125 267.976562 481.125 266.851562 478.125 265.574219 C 474.675781 264.148438 471.824219 261.675781 467.925781 258.300781 C 461.699219 252.824219 452.25 241.949219 445.5 234.375 C 439.726562 227.925781 435.976562 223.5 429.675781 215.925781 C 420.148438 204.226562 405.523438 184.726562 394.125 170.851562 C 384 158.550781 372.148438 144.601562 364.875 136.648438 C 360.75 132.148438 358.875 130.125 354.976562 126.375 C 349.875 121.5 340.574219 108.148438 336.449219 110.023438 C 328.273438 113.699219 334.949219 183.976562 335.699219 205.648438 C 336.148438 216.824219 336.675781 222.976562 337.800781 231.074219 C 338.851562 238.5 339.675781 242.101562 341.925781 252.300781 C 347.925781 279.074219 374.851562 370.425781 378.300781 397.125 C 379.648438 407.175781 379.273438 411.375 378.523438 418.199219 C 377.851562 424.648438 376.648438 432.300781 374.101562 436.949219 C 372.300781 440.398438 369.675781 442.949219 366.824219 444.523438 C 364.125 446.101562 360.824219 446.398438 357.601562 446.625 C 354.074219 447 350.25 446.550781 346.574219 446.175781 C 342.898438 445.726562 339.75 445.726562 335.699219 444.148438 C 329.398438 441.601562 319.199219 433.875 313.574219 429.824219 C 309.976562 427.125 308.476562 426.375 304.949219 422.699219 C 297.074219 414.824219 282.523438 396.148438 271.425781 380.851562 C 258.824219 363.523438 244.125 338.324219 233.925781 323.699219 C 227.324219 314.398438 222.300781 307.875 216.976562 301.273438 C 212.476562 295.648438 208.726562 291.300781 204.148438 286.351562 C 199.351562 281.175781 193.273438 274.5 188.851562 270.824219 C 186 268.425781 182.699219 264.75 181.199219 265.574219 C 179.175781 266.699219 181.5 279.523438 182.101562 285.300781 C 182.550781 289.800781 182.925781 291.601562 184.125 297.300781 C 187.351562 312.148438 199.800781 353.398438 205.199219 376.199219 C 209.324219 393.375 212.25 406.726562 214.800781 421.726562 C 217.273438 436.351562 219.675781 451.800781 220.273438 465.300781 C 220.800781 477 220.425781 488.398438 219.074219 498.226562 C 217.949219 506.398438 216 512.773438 213.601562 520.425781 C 210.898438 529.125 207.074219 539.550781 203.25 547.425781 C 200.023438 554.023438 196.125 560.398438 192.675781 564.976562 C 190.199219 568.425781 187.949219 570.601562 185.175781 573.300781 C 182.324219 576.148438 179.324219 579.449219 175.726562 581.550781 C 171.898438 583.800781 167.175781 585.523438 162.675781 586.199219 C 158.101562 586.800781 153.300781 585.976562 148.351562 585.226562 C 142.949219 584.324219 138.300781 583.425781 131.625 580.949219 C 120.898438 576.976562 102.375 566.925781 90.898438 560.925781 C 82.425781 556.5 76.273438 552.898438 69.074219 548.773438 C 61.949219 544.726562 56.175781 541.574219 47.925781 536.25 C 35.773438 528.449219 9.375 510.375 3.824219 505.273438 C 2.398438 503.925781 1.949219 503.476562 1.351562 502.351562 C 0.824219 501.226562 0.449219 499.949219 0.523438 498.601562 C 0.675781 496.949219 1.425781 494.625 2.625 493.351562 C 3.824219 492.074219 6 491.023438 7.726562 490.800781 C 9.523438 490.648438 13.199219 492.300781 13.199219 492.300781 " clip-rule="nonzero"/></clipPath><clipPath id="971866869c"><rect x="0" width="505" y="0" height="587"/></clipPath></defs><path fill="#00ff0a" d="M 1350 600 L 1500 600 L 1500 750 L 1350 750 Z M 1350 600 " fill-opacity="1" fill-rule="nonzero"/><path fill="#00ff0a" d="M 1350 450 L 1500 450 L 1500 600 L 1350 600 Z M 1350 450 " fill-opacity="1" fill-rule="nonzero"/><path fill="#00ff0a" d="M 1200 750 L 1350 750 L 1350 900 L 1200 900 Z M 1200 750 " fill-opacity="1" fill-rule="nonzero"/><path fill="#038908" d="M 1200 600 L 1350 600 L 1350 750 L 1200 750 Z M 1200 600 " fill-opacity="1" fill-rule="nonzero"/><path fill="#038908" d="M 1200 450 L 1350 450 L 1350 600 L 1200 600 Z M 1200 450 " fill-opacity="1" fill-rule="nonzero"/><path fill="#00ff0a" d="M 1200 300 L 1350 300 L 1350 450 L 1200 450 Z M 1200 300 " fill-opacity="1" fill-rule="nonzero"/><path fill="#00ff0a" d="M 1050 900 L 1200 900 L 1200 1050 L 1050 1050 Z M 1050 900 " fill-opacity="1" fill-rule="nonzero"/><path fill="#038908" d="M 1050 750 L 1200 750 L 1200 900 L 1050 900 Z M 1050 750 " fill-opacity="1" fill-rule="nonzero"/><path fill="#038908" d="M 1050 600 L 1200 600 L 1200 750 L 1050 750 Z M 1050 600 " fill-opacity="1" fill-rule="nonzero"/><path fill="#0b8d10" d="M 1050 450 L 1200 450 L 1200 600 L 1050 600 Z M 1050 450 " fill-opacity="1" fill-rule="nonzero"/><path fill="#038908" d="M 1050 300 L 1200 300 L 1200 450 L 1050 450 Z M 1050 300 " fill-opacity="1" fill-rule="nonzero"/><path fill="#00ff0a" d="M 1050 150 L 1200 150 L 1200 300 L 1050 300 Z M 1050 150 " fill-opacity="1" fill-rule="nonzero"/><path fill="#00ff0a" d="M 900 1050 L 1050 1050 L 1050 1200 L 900 1200 Z M 900 1050 " fill-opacity="1" fill-rule="nonzero"/><path fill="#038908" d="M 900 900 L 1050 900 L 1050 1050 L 900 1050 Z M 900 900 " fill-opacity="1" fill-rule="nonzero"/><path fill="#038908" d="M 900 750 L 1050 750 L 1050 900 L 900 900 Z M 900 750 " fill-opacity="1" fill-rule="nonzero"/><path fill="#0b8d10" d="M 900 600 L 1050 600 L 1050 750 L 900 750 Z M 900 600 " fill-opacity="1" fill-rule="nonzero"/><path fill="#0b8d10" d="M 900 450 L 1050 450 L 1050 600 L 900 600 Z M 900 450 " fill-opacity="1" fill-rule="nonzero"/><path fill="#0b8d10" d="M 900 300 L 1050 300 L 1050 450 L 900 450 Z M 900 300 " fill-opacity="1" fill-rule="nonzero"/><path fill="#00ff0a" d="M 900 150 L 1050 150 L 1050 300 L 900 300 Z M 900 150 " fill-opacity="1" fill-rule="nonzero"/><path fill="#00ff0a" d="M 750 1200 L 900 1200 L 900 1350 L 750 1350 Z M 750 1200 " fill-opacity="1" fill-rule="nonzero"/><path fill="#038908" d="M 750 1050 L 900 1050 L 900 1200 L 750 1200 Z M 750 1050 " fill-opacity="1" fill-rule="nonzero"/><path fill="#038908" d="M 750 900 L 900 900 L 900 1050 L 750 1050 Z M 750 900 " fill-opacity="1" fill-rule="nonzero"/><path fill="#0b8d10" d="M 750 750 L 900 750 L 900 900 L 750 900 Z M 750 750 " fill-opacity="1" fill-rule="nonzero"/><path fill="#0b8d10" d="M 750 600 L 900 600 L 900 750 L 750 750 Z M 750 600 " fill-opacity="1" fill-rule="nonzero"/><path fill="#0b8d10" d="M 750 450 L 900 450 L 900 600 L 750 600 Z M 750 450 " fill-opacity="1" fill-rule="nonzero"/><path fill="#00ff0a" d="M 750 300 L 900 300 L 900 450 L 750 450 Z M 750 300 " fill-opacity="1" fill-rule="nonzero"/><path fill="#00ff0a" d="M 600 1200 L 750 1200 L 750 1350 L 600 1350 Z M 600 1200 " fill-opacity="1" fill-rule="nonzero"/><path fill="#038908" d="M 600 1050 L 750 1050 L 750 1200 L 600 1200 Z M 600 1050 " fill-opacity="1" fill-rule="nonzero"/><path fill="#0b8d10" d="M 600 900 L 750 900 L 750 1050 L 600 1050 Z M 600 900 " fill-opacity="1" fill-rule="nonzero"/><path fill="#0b8d10" d="M 600 750 L 750 750 L 750 900 L 600 900 Z M 600 750 " fill-opacity="1" fill-rule="nonzero"/><path fill="#0b8d10" d="M 600 600 L 750 600 L 750 750 L 600 750 Z M 600 600 " fill-opacity="1" fill-rule="nonzero"/><path fill="#0b8d10" d="M 600 450 L 750 450 L 750 600 L 600 600 Z M 600 450 " fill-opacity="1" fill-rule="nonzero"/><path fill="#00ff0a" d="M 600 300 L 750 300 L 750 450 L 600 450 Z M 600 300 " fill-opacity="1" fill-rule="nonzero"/><path fill="#00ff0a" d="M 450 1050 L 600 1050 L 600 1200 L 450 1200 Z M 450 1050 " fill-opacity="1" fill-rule="nonzero"/><path fill="#0b8d10" d="M 450 900 L 600 900 L 600 1050 L 450 1050 Z M 450 900 " fill-opacity="1" fill-rule="nonzero"/><path fill="#0b8d10" d="M 450 750 L 600 750 L 600 900 L 450 900 Z M 450 750 " fill-opacity="1" fill-rule="nonzero"/><path fill="#004d03" d="M 450 600 L 600 600 L 600 750 L 450 750 Z M 450 600 " fill-opacity="1" fill-rule="nonzero"/><path fill="#0b8d10" d="M 450 450 L 600 450 L 600 600 L 450 600 Z M 450 450 " fill-opacity="1" fill-rule="nonzero"/><path fill="#0b8d10" d="M 450 300 L 600 300 L 600 450 L 450 450 Z M 450 300 " fill-opacity="1" fill-rule="nonzero"/><path fill="#00ff0a" d="M 450 150 L 600 150 L 600 300 L 450 300 Z M 450 150 " fill-opacity="1" fill-rule="nonzero"/><path fill="#00ff0a" d="M 300 900 L 450 900 L 450 1050 L 300 1050 Z M 300 900 " fill-opacity="1" fill-rule="nonzero"/><path fill="#0b8d10" d="M 300 750 L 450 750 L 450 900 L 300 900 Z M 300 750 " fill-opacity="1" fill-rule="nonzero"/><path fill="#0b8d10" d="M 300 600 L 450 600 L 450 750 L 300 750 Z M 300 600 " fill-opacity="1" fill-rule="nonzero"/><path fill="#004d03" d="M 300 450 L 450 450 L 450 600 L 300 600 Z M 300 450 " fill-opacity="1" fill-rule="nonzero"/><path fill="#0b8d10" d="M 300 300 L 450 300 L 450 450 L 300 450 Z M 300 300 " fill-opacity="1" fill-rule="nonzero"/><path fill="#00ff0a" d="M 300 150 L 450 150 L 450 300 L 300 300 Z M 300 150 " fill-opacity="1" fill-rule="nonzero"/><path fill="#00ff0a" d="M 150 750 L 300 750 L 300 900 L 150 900 Z M 150 750 " fill-opacity="1" fill-rule="nonzero"/><path fill="#0b8d10" d="M 150 600 L 300 600 L 300 750 L 150 750 Z M 150 600 " fill-opacity="1" fill-rule="nonzero"/><path fill="#0b8d10" d="M 150 450 L 300 450 L 300 600 L 150 600 Z M 150 450 " fill-opacity="1" fill-rule="nonzero"/><path fill="#00ff0a" d="M 150 300 L 300 300 L 300 450 L 150 450 Z M 150 300 " fill-opacity="1" fill-rule="nonzero"/><path fill="#00ff0a" d="M 0 600 L 150 600 L 150 750 L 0 750 Z M 0 600 " fill-opacity="1" fill-rule="nonzero"/><path fill="#00ff0a" d="M 0 450 L 150 450 L 150 600 L 0 600 Z M 0 450 " fill-opacity="1" fill-rule="nonzero"/><g clip-path="url(#3127a175aa)"><g clip-path="url(#d258f653f7)"><g transform="matrix(1, 0, 0, 1, 642, 396)"><g clip-path="url(#971866869c)"><g clip-path="url(#0b5d449277)"><g clip-path="url(#c6ef843097)"><rect x="-972" width="2160" fill="#004d03" height="2159.999904" y="-725.999985" fill-opacity="1"/></g></g></g></g></g></g></svg>